<mxfile host="app.diagrams.net" modified="2023-04-23T12:43:19.912Z" agent="Mozilla/5.0 (Windows NT 10.0; Win64; x64) AppleWebKit/537.36 (KHTML, like Gecko) Chrome/112.0.0.0 Safari/537.36" etag="Q-agzwSIr6Lz_Y-bNs_G" version="21.2.1" type="device" pages="6">
  <diagram name="Deployment Diagram" id="ehnx1GXCmhH_EwF7rD-4">
    <mxGraphModel dx="1434" dy="768" grid="1" gridSize="10" guides="1" tooltips="1" connect="1" arrows="1" fold="1" page="1" pageScale="1" pageWidth="850" pageHeight="1100" math="0" shadow="0">
      <root>
        <mxCell id="0" />
        <mxCell id="1" parent="0" />
        <mxCell id="8iAajvbkFuxBs_FeLMcy-1" value="&lt;font style=&quot;font-size: 13px;&quot;&gt;&amp;lt;&amp;lt;device&amp;gt;&amp;gt;&lt;br&gt;Web Server&lt;/font&gt;" style="verticalAlign=top;align=center;spacingTop=8;spacingLeft=2;spacingRight=12;shape=cube;size=10;direction=south;fontStyle=4;html=1;whiteSpace=wrap;fillColor=#ffe6cc;strokeColor=#d79b00;" parent="1" vertex="1">
          <mxGeometry x="90" y="120" width="180" height="120" as="geometry" />
        </mxCell>
        <mxCell id="8iAajvbkFuxBs_FeLMcy-2" value="&lt;div style=&quot;font-size: 13px;&quot;&gt;&lt;span style=&quot;background-color: initial;&quot;&gt;&lt;font style=&quot;font-size: 13px;&quot;&gt;&amp;lt;&amp;lt;device&amp;gt;&amp;gt;&lt;/font&gt;&lt;/span&gt;&lt;/div&gt;&lt;div style=&quot;font-size: 13px;&quot;&gt;&lt;span style=&quot;background-color: initial;&quot;&gt;&lt;font style=&quot;font-size: 13px;&quot;&gt;Database Server&lt;/font&gt;&lt;/span&gt;&lt;/div&gt;" style="verticalAlign=top;align=center;spacingTop=8;spacingLeft=2;spacingRight=12;shape=cube;size=10;direction=south;fontStyle=4;html=1;whiteSpace=wrap;fillColor=#ffe6cc;strokeColor=#d79b00;" parent="1" vertex="1">
          <mxGeometry x="425" y="300" width="180" height="120" as="geometry" />
        </mxCell>
        <mxCell id="8iAajvbkFuxBs_FeLMcy-3" value="&lt;font style=&quot;font-size: 13px;&quot;&gt;&amp;lt;&amp;lt;device&amp;gt;&amp;gt;&lt;br&gt;User&amp;nbsp; PC&lt;/font&gt;" style="verticalAlign=top;align=center;spacingTop=8;spacingLeft=2;spacingRight=12;shape=cube;size=10;direction=south;fontStyle=4;html=1;whiteSpace=wrap;fillColor=#ffe6cc;strokeColor=#d79b00;" parent="1" vertex="1">
          <mxGeometry x="425" y="120" width="180" height="120" as="geometry" />
        </mxCell>
        <mxCell id="8iAajvbkFuxBs_FeLMcy-5" value="" style="endArrow=none;html=1;rounded=0;entryX=0;entryY=0;entryDx=65;entryDy=180;entryPerimeter=0;exitX=0;exitY=0;exitDx=55;exitDy=0;exitPerimeter=0;" parent="1" source="8iAajvbkFuxBs_FeLMcy-11" target="8iAajvbkFuxBs_FeLMcy-2" edge="1">
          <mxGeometry width="50" height="50" relative="1" as="geometry">
            <mxPoint x="360" y="420" as="sourcePoint" />
            <mxPoint x="430" y="210" as="targetPoint" />
          </mxGeometry>
        </mxCell>
        <mxCell id="8iAajvbkFuxBs_FeLMcy-6" value="" style="endArrow=none;html=1;rounded=0;exitX=0.5;exitY=0.056;exitDx=0;exitDy=0;exitPerimeter=0;entryX=0;entryY=0;entryDx=65;entryDy=180;entryPerimeter=0;" parent="1" source="8iAajvbkFuxBs_FeLMcy-1" target="8iAajvbkFuxBs_FeLMcy-3" edge="1">
          <mxGeometry width="50" height="50" relative="1" as="geometry">
            <mxPoint x="284" y="301.5" as="sourcePoint" />
            <mxPoint x="425" y="218.5" as="targetPoint" />
          </mxGeometry>
        </mxCell>
        <mxCell id="8iAajvbkFuxBs_FeLMcy-7" value="4200 (front-end port)" style="text;html=1;align=center;verticalAlign=middle;resizable=0;points=[];autosize=1;strokeColor=none;fillColor=none;rotation=0;" parent="1" vertex="1">
          <mxGeometry x="290" y="160" width="130" height="30" as="geometry" />
        </mxCell>
        <mxCell id="8iAajvbkFuxBs_FeLMcy-8" value="&amp;lt;&amp;lt;artifact&amp;gt;&amp;gt;&lt;br&gt;index.js" style="html=1;whiteSpace=wrap;fillColor=#dae8fc;strokeColor=#6c8ebf;" parent="1" vertex="1">
          <mxGeometry x="120" y="180" width="110" height="50" as="geometry" />
        </mxCell>
        <mxCell id="8iAajvbkFuxBs_FeLMcy-9" value="&amp;lt;&amp;lt;artifact&amp;gt;&amp;gt;&lt;br&gt;MySQL Database" style="html=1;whiteSpace=wrap;fillColor=#dae8fc;strokeColor=#6c8ebf;" parent="1" vertex="1">
          <mxGeometry x="455" y="360" width="110" height="50" as="geometry" />
        </mxCell>
        <mxCell id="8iAajvbkFuxBs_FeLMcy-10" value="&amp;lt;&amp;lt;artifact&amp;gt;&amp;gt;&lt;br&gt;Web Browser" style="html=1;whiteSpace=wrap;fillColor=#dae8fc;strokeColor=#6c8ebf;" parent="1" vertex="1">
          <mxGeometry x="460" y="180" width="110" height="50" as="geometry" />
        </mxCell>
        <mxCell id="8iAajvbkFuxBs_FeLMcy-11" value="&lt;font style=&quot;font-size: 13px;&quot;&gt;&amp;lt;&amp;lt;device&amp;gt;&amp;gt;&lt;br&gt;Application Server&lt;/font&gt;" style="verticalAlign=top;align=center;spacingTop=8;spacingLeft=2;spacingRight=12;shape=cube;size=10;direction=south;fontStyle=4;html=1;whiteSpace=wrap;fillColor=#ffe6cc;strokeColor=#d79b00;" parent="1" vertex="1">
          <mxGeometry x="90" y="310" width="180" height="120" as="geometry" />
        </mxCell>
        <mxCell id="8iAajvbkFuxBs_FeLMcy-12" value="&amp;lt;&amp;lt;artifact&amp;gt;&amp;gt;&lt;br&gt;main.java" style="html=1;whiteSpace=wrap;fillColor=#dae8fc;strokeColor=#6c8ebf;" parent="1" vertex="1">
          <mxGeometry x="120" y="370" width="110" height="50" as="geometry" />
        </mxCell>
        <mxCell id="8iAajvbkFuxBs_FeLMcy-13" value="" style="endArrow=none;html=1;rounded=0;exitX=0;exitY=0;exitDx=120;exitDy=95;exitPerimeter=0;" parent="1" source="8iAajvbkFuxBs_FeLMcy-1" target="8iAajvbkFuxBs_FeLMcy-11" edge="1">
          <mxGeometry width="50" height="50" relative="1" as="geometry">
            <mxPoint x="170" y="265" as="sourcePoint" />
            <mxPoint x="324" y="250" as="targetPoint" />
          </mxGeometry>
        </mxCell>
        <mxCell id="8iAajvbkFuxBs_FeLMcy-14" value="3306 Db port" style="text;html=1;align=center;verticalAlign=middle;resizable=0;points=[];autosize=1;strokeColor=none;fillColor=none;" parent="1" vertex="1">
          <mxGeometry x="305" y="335" width="90" height="30" as="geometry" />
        </mxCell>
        <mxCell id="8iAajvbkFuxBs_FeLMcy-15" value="REST API&lt;br&gt;8080 Java port" style="text;html=1;align=center;verticalAlign=middle;resizable=0;points=[];autosize=1;strokeColor=none;fillColor=none;" parent="1" vertex="1">
          <mxGeometry x="170" y="260" width="100" height="40" as="geometry" />
        </mxCell>
      </root>
    </mxGraphModel>
  </diagram>
  <diagram id="QDq9DG_XZspbQdzpHU2A" name="Package Diagram">
    <mxGraphModel dx="2284" dy="1868" grid="1" gridSize="10" guides="1" tooltips="1" connect="1" arrows="1" fold="1" page="1" pageScale="1" pageWidth="850" pageHeight="1100" math="0" shadow="0">
      <root>
        <mxCell id="0" />
        <mxCell id="1" parent="0" />
        <mxCell id="d31e2tAE6U29-CwRIccW-1" value="LayeredArchitecture" style="shape=folder;fontStyle=1;tabWidth=160;tabHeight=30;tabPosition=left;html=1;boundedLbl=1;labelInHeader=1;container=1;collapsible=0;" vertex="1" parent="1">
          <mxGeometry x="-610" y="-20" width="820" height="810" as="geometry" />
        </mxCell>
        <mxCell id="d31e2tAE6U29-CwRIccW-2" value="" style="html=1;strokeColor=none;resizeWidth=1;resizeHeight=1;fillColor=none;part=1;connectable=0;allowArrows=0;deletable=0;" vertex="1" parent="d31e2tAE6U29-CwRIccW-1">
          <mxGeometry width="730.0000000000001" height="567" relative="1" as="geometry">
            <mxPoint y="30" as="offset" />
          </mxGeometry>
        </mxCell>
        <mxCell id="d31e2tAE6U29-CwRIccW-3" value="Controller" style="shape=folder;fontStyle=1;tabWidth=110;tabHeight=30;tabPosition=left;html=1;boundedLbl=1;labelInHeader=1;container=1;collapsible=0;" vertex="1" parent="d31e2tAE6U29-CwRIccW-1">
          <mxGeometry x="450" y="90" width="270" height="220" as="geometry" />
        </mxCell>
        <mxCell id="d31e2tAE6U29-CwRIccW-4" value="" style="html=1;strokeColor=none;resizeWidth=1;resizeHeight=1;fillColor=none;part=1;connectable=0;allowArrows=0;deletable=0;" vertex="1" parent="d31e2tAE6U29-CwRIccW-3">
          <mxGeometry width="468.00000000000006" height="330" relative="1" as="geometry">
            <mxPoint y="30" as="offset" />
          </mxGeometry>
        </mxCell>
        <mxCell id="d31e2tAE6U29-CwRIccW-5" value="dto" style="shape=folder;fontStyle=1;tabWidth=110;tabHeight=30;tabPosition=left;html=1;boundedLbl=1;labelInHeader=1;container=1;collapsible=0;" vertex="1" parent="d31e2tAE6U29-CwRIccW-3">
          <mxGeometry x="20" y="50" width="130" height="80" as="geometry" />
        </mxCell>
        <mxCell id="d31e2tAE6U29-CwRIccW-6" value="" style="html=1;strokeColor=none;resizeWidth=1;resizeHeight=1;fillColor=none;part=1;connectable=0;allowArrows=0;deletable=0;" vertex="1" parent="d31e2tAE6U29-CwRIccW-5">
          <mxGeometry width="130" height="56" relative="1" as="geometry">
            <mxPoint y="30" as="offset" />
          </mxGeometry>
        </mxCell>
        <mxCell id="d31e2tAE6U29-CwRIccW-7" value="mapper" style="shape=folder;fontStyle=1;tabWidth=110;tabHeight=30;tabPosition=left;html=1;boundedLbl=1;labelInHeader=1;container=1;collapsible=0;" vertex="1" parent="d31e2tAE6U29-CwRIccW-3">
          <mxGeometry x="120" y="140" width="130" height="70" as="geometry" />
        </mxCell>
        <mxCell id="d31e2tAE6U29-CwRIccW-8" value="" style="html=1;strokeColor=none;resizeWidth=1;resizeHeight=1;fillColor=none;part=1;connectable=0;allowArrows=0;deletable=0;" vertex="1" parent="d31e2tAE6U29-CwRIccW-7">
          <mxGeometry width="130" height="49" relative="1" as="geometry">
            <mxPoint y="30" as="offset" />
          </mxGeometry>
        </mxCell>
        <mxCell id="d31e2tAE6U29-CwRIccW-9" value="" style="html=1;verticalAlign=bottom;labelBackgroundColor=none;endArrow=open;endFill=0;dashed=1;rounded=0;exitX=0;exitY=0;exitDx=0;exitDy=50;exitPerimeter=0;entryX=0.25;entryY=1;entryDx=0;entryDy=0;entryPerimeter=0;" edge="1" parent="d31e2tAE6U29-CwRIccW-3" source="d31e2tAE6U29-CwRIccW-7" target="d31e2tAE6U29-CwRIccW-5">
          <mxGeometry width="160" relative="1" as="geometry">
            <mxPoint x="-170" y="220" as="sourcePoint" />
            <mxPoint x="-10" y="220" as="targetPoint" />
          </mxGeometry>
        </mxCell>
        <mxCell id="d31e2tAE6U29-CwRIccW-10" value="dao" style="shape=folder;fontStyle=1;tabWidth=110;tabHeight=30;tabPosition=left;html=1;boundedLbl=1;labelInHeader=1;container=1;collapsible=0;" vertex="1" parent="d31e2tAE6U29-CwRIccW-1">
          <mxGeometry x="185" y="360" width="240" height="170" as="geometry" />
        </mxCell>
        <mxCell id="d31e2tAE6U29-CwRIccW-11" value="" style="html=1;strokeColor=none;resizeWidth=1;resizeHeight=1;fillColor=none;part=1;connectable=0;allowArrows=0;deletable=0;" vertex="1" parent="d31e2tAE6U29-CwRIccW-10">
          <mxGeometry width="240" height="119" relative="1" as="geometry">
            <mxPoint y="30" as="offset" />
          </mxGeometry>
        </mxCell>
        <mxCell id="d31e2tAE6U29-CwRIccW-12" value="jpa" style="shape=folder;fontStyle=1;tabWidth=110;tabHeight=30;tabPosition=left;html=1;boundedLbl=1;labelInHeader=1;container=1;collapsible=0;" vertex="1" parent="d31e2tAE6U29-CwRIccW-10">
          <mxGeometry x="40" y="40" width="150" height="100" as="geometry" />
        </mxCell>
        <mxCell id="d31e2tAE6U29-CwRIccW-13" value="" style="html=1;strokeColor=none;resizeWidth=1;resizeHeight=1;fillColor=none;part=1;connectable=0;allowArrows=0;deletable=0;" vertex="1" parent="d31e2tAE6U29-CwRIccW-12">
          <mxGeometry width="150" height="70" relative="1" as="geometry">
            <mxPoint y="30" as="offset" />
          </mxGeometry>
        </mxCell>
        <mxCell id="d31e2tAE6U29-CwRIccW-14" value="Service" style="shape=folder;fontStyle=1;tabWidth=110;tabHeight=30;tabPosition=left;html=1;boundedLbl=1;labelInHeader=1;container=1;collapsible=0;" vertex="1" parent="d31e2tAE6U29-CwRIccW-1">
          <mxGeometry x="540" y="395" width="150" height="100" as="geometry" />
        </mxCell>
        <mxCell id="d31e2tAE6U29-CwRIccW-15" value="" style="html=1;strokeColor=none;resizeWidth=1;resizeHeight=1;fillColor=none;part=1;connectable=0;allowArrows=0;deletable=0;" vertex="1" parent="d31e2tAE6U29-CwRIccW-14">
          <mxGeometry width="150" height="70" relative="1" as="geometry">
            <mxPoint y="30" as="offset" />
          </mxGeometry>
        </mxCell>
        <mxCell id="d31e2tAE6U29-CwRIccW-16" value="Model" style="shape=folder;fontStyle=1;tabWidth=110;tabHeight=30;tabPosition=left;html=1;boundedLbl=1;labelInHeader=1;container=1;collapsible=0;" vertex="1" parent="d31e2tAE6U29-CwRIccW-1">
          <mxGeometry x="425" y="650" width="150" height="100" as="geometry" />
        </mxCell>
        <mxCell id="d31e2tAE6U29-CwRIccW-17" value="" style="html=1;strokeColor=none;resizeWidth=1;resizeHeight=1;fillColor=none;part=1;connectable=0;allowArrows=0;deletable=0;" vertex="1" parent="d31e2tAE6U29-CwRIccW-16">
          <mxGeometry width="150" height="70" relative="1" as="geometry">
            <mxPoint y="30" as="offset" />
          </mxGeometry>
        </mxCell>
        <mxCell id="d31e2tAE6U29-CwRIccW-18" value="" style="html=1;verticalAlign=bottom;labelBackgroundColor=none;endArrow=open;endFill=0;dashed=1;rounded=0;exitX=0.5;exitY=1;exitDx=0;exitDy=0;exitPerimeter=0;" edge="1" parent="d31e2tAE6U29-CwRIccW-1" source="d31e2tAE6U29-CwRIccW-10" target="d31e2tAE6U29-CwRIccW-16">
          <mxGeometry width="160" relative="1" as="geometry">
            <mxPoint x="280" y="440" as="sourcePoint" />
            <mxPoint x="440" y="440" as="targetPoint" />
          </mxGeometry>
        </mxCell>
        <mxCell id="d31e2tAE6U29-CwRIccW-19" value="" style="html=1;verticalAlign=bottom;labelBackgroundColor=none;endArrow=open;endFill=0;dashed=1;rounded=0;entryX=0;entryY=0;entryDx=55;entryDy=0;entryPerimeter=0;" edge="1" parent="d31e2tAE6U29-CwRIccW-1" source="d31e2tAE6U29-CwRIccW-14" target="d31e2tAE6U29-CwRIccW-16">
          <mxGeometry width="160" relative="1" as="geometry">
            <mxPoint x="280" y="440" as="sourcePoint" />
            <mxPoint x="440" y="440" as="targetPoint" />
          </mxGeometry>
        </mxCell>
        <mxCell id="d31e2tAE6U29-CwRIccW-20" value="" style="html=1;verticalAlign=bottom;labelBackgroundColor=none;endArrow=open;endFill=0;dashed=1;rounded=0;entryX=0;entryY=0;entryDx=55;entryDy=0;entryPerimeter=0;" edge="1" parent="d31e2tAE6U29-CwRIccW-1" source="d31e2tAE6U29-CwRIccW-3" target="d31e2tAE6U29-CwRIccW-14">
          <mxGeometry width="160" relative="1" as="geometry">
            <mxPoint x="280" y="440" as="sourcePoint" />
            <mxPoint x="440" y="440" as="targetPoint" />
          </mxGeometry>
        </mxCell>
        <mxCell id="d31e2tAE6U29-CwRIccW-21" value="" style="html=1;verticalAlign=bottom;labelBackgroundColor=none;endArrow=open;endFill=0;dashed=1;rounded=0;entryX=0;entryY=0;entryDx=175;entryDy=30;entryPerimeter=0;" edge="1" parent="d31e2tAE6U29-CwRIccW-1" source="d31e2tAE6U29-CwRIccW-3" target="d31e2tAE6U29-CwRIccW-10">
          <mxGeometry width="160" relative="1" as="geometry">
            <mxPoint x="280" y="440" as="sourcePoint" />
            <mxPoint x="440" y="440" as="targetPoint" />
          </mxGeometry>
        </mxCell>
      </root>
    </mxGraphModel>
  </diagram>
  <diagram id="5tcU22TKv2IFGEKPyqXe" name="Use-case_user Diagram">
    <mxGraphModel dx="1434" dy="768" grid="1" gridSize="10" guides="1" tooltips="1" connect="1" arrows="1" fold="1" page="1" pageScale="1" pageWidth="850" pageHeight="1100" math="0" shadow="0">
      <root>
        <mxCell id="0" />
        <mxCell id="1" parent="0" />
        <mxCell id="fVKeYW8XV8TN3xI963bs-1" value="User" style="shape=umlActor;verticalLabelPosition=bottom;verticalAlign=top;html=1;outlineConnect=0;" parent="1" vertex="1">
          <mxGeometry x="90" y="370" width="30" height="60" as="geometry" />
        </mxCell>
        <mxCell id="fVKeYW8XV8TN3xI963bs-2" value="" style="rounded=0;whiteSpace=wrap;html=1;rotation=-90;" parent="1" vertex="1">
          <mxGeometry x="-145.62" y="425.63" width="1051.25" height="200" as="geometry" />
        </mxCell>
        <mxCell id="fVKeYW8XV8TN3xI963bs-3" value="login" style="ellipse;whiteSpace=wrap;html=1;" parent="1" vertex="1">
          <mxGeometry x="320" y="80" width="120" height="80" as="geometry" />
        </mxCell>
        <mxCell id="fVKeYW8XV8TN3xI963bs-4" value="register" style="ellipse;whiteSpace=wrap;html=1;" parent="1" vertex="1">
          <mxGeometry x="320" y="180" width="120" height="80" as="geometry" />
        </mxCell>
        <mxCell id="fVKeYW8XV8TN3xI963bs-5" value="add a question" style="ellipse;whiteSpace=wrap;html=1;" parent="1" vertex="1">
          <mxGeometry x="320" y="280" width="120" height="80" as="geometry" />
        </mxCell>
        <mxCell id="fVKeYW8XV8TN3xI963bs-6" value="react to a question" style="ellipse;whiteSpace=wrap;html=1;" parent="1" vertex="1">
          <mxGeometry x="320" y="380" width="120" height="80" as="geometry" />
        </mxCell>
        <mxCell id="fVKeYW8XV8TN3xI963bs-7" value="view a question" style="ellipse;whiteSpace=wrap;html=1;" parent="1" vertex="1">
          <mxGeometry x="320" y="480" width="120" height="80" as="geometry" />
        </mxCell>
        <mxCell id="fVKeYW8XV8TN3xI963bs-8" value="comment on a question" style="ellipse;whiteSpace=wrap;html=1;" parent="1" vertex="1">
          <mxGeometry x="320" y="665" width="120" height="80" as="geometry" />
        </mxCell>
        <mxCell id="fVKeYW8XV8TN3xI963bs-9" value="react to an answer" style="ellipse;whiteSpace=wrap;html=1;" parent="1" vertex="1">
          <mxGeometry x="320" y="765" width="120" height="80" as="geometry" />
        </mxCell>
        <mxCell id="fVKeYW8XV8TN3xI963bs-10" value="filter the questions" style="ellipse;whiteSpace=wrap;html=1;" parent="1" vertex="1">
          <mxGeometry x="320" y="865" width="120" height="80" as="geometry" />
        </mxCell>
        <mxCell id="fVKeYW8XV8TN3xI963bs-11" value="Stackoverflow web application" style="text;html=1;strokeColor=none;fillColor=none;align=center;verticalAlign=middle;whiteSpace=wrap;rounded=0;" parent="1" vertex="1">
          <mxGeometry x="350" y="10" width="60" height="30" as="geometry" />
        </mxCell>
        <mxCell id="fVKeYW8XV8TN3xI963bs-12" value="log out" style="ellipse;whiteSpace=wrap;html=1;" parent="1" vertex="1">
          <mxGeometry x="320" y="955" width="120" height="80" as="geometry" />
        </mxCell>
        <mxCell id="fVKeYW8XV8TN3xI963bs-13" value="" style="endArrow=classic;html=1;rounded=0;exitX=0.75;exitY=0.1;exitDx=0;exitDy=0;exitPerimeter=0;entryX=0;entryY=0.5;entryDx=0;entryDy=0;" parent="1" source="fVKeYW8XV8TN3xI963bs-1" target="fVKeYW8XV8TN3xI963bs-3" edge="1">
          <mxGeometry width="50" height="50" relative="1" as="geometry">
            <mxPoint x="140" y="320" as="sourcePoint" />
            <mxPoint x="190" y="270" as="targetPoint" />
          </mxGeometry>
        </mxCell>
        <mxCell id="fVKeYW8XV8TN3xI963bs-14" value="" style="endArrow=classic;html=1;rounded=0;exitX=0.75;exitY=0.1;exitDx=0;exitDy=0;exitPerimeter=0;entryX=0;entryY=0.5;entryDx=0;entryDy=0;" parent="1" source="fVKeYW8XV8TN3xI963bs-1" target="fVKeYW8XV8TN3xI963bs-4" edge="1">
          <mxGeometry width="50" height="50" relative="1" as="geometry">
            <mxPoint x="200" y="350" as="sourcePoint" />
            <mxPoint x="250" y="300" as="targetPoint" />
          </mxGeometry>
        </mxCell>
        <mxCell id="fVKeYW8XV8TN3xI963bs-15" value="" style="endArrow=classic;html=1;rounded=0;entryX=0;entryY=0.5;entryDx=0;entryDy=0;exitX=0.75;exitY=0.1;exitDx=0;exitDy=0;exitPerimeter=0;" parent="1" source="fVKeYW8XV8TN3xI963bs-1" target="fVKeYW8XV8TN3xI963bs-5" edge="1">
          <mxGeometry width="50" height="50" relative="1" as="geometry">
            <mxPoint x="120" y="370" as="sourcePoint" />
            <mxPoint x="330" y="230" as="targetPoint" />
          </mxGeometry>
        </mxCell>
        <mxCell id="fVKeYW8XV8TN3xI963bs-16" value="" style="endArrow=classic;html=1;rounded=0;entryX=0;entryY=0.5;entryDx=0;entryDy=0;exitX=0.75;exitY=0.1;exitDx=0;exitDy=0;exitPerimeter=0;" parent="1" source="fVKeYW8XV8TN3xI963bs-1" target="fVKeYW8XV8TN3xI963bs-6" edge="1">
          <mxGeometry width="50" height="50" relative="1" as="geometry">
            <mxPoint x="123" y="386" as="sourcePoint" />
            <mxPoint x="330" y="330" as="targetPoint" />
          </mxGeometry>
        </mxCell>
        <mxCell id="fVKeYW8XV8TN3xI963bs-17" value="" style="endArrow=classic;html=1;rounded=0;entryX=0;entryY=0.5;entryDx=0;entryDy=0;exitX=0.75;exitY=0.1;exitDx=0;exitDy=0;exitPerimeter=0;" parent="1" source="fVKeYW8XV8TN3xI963bs-1" target="fVKeYW8XV8TN3xI963bs-7" edge="1">
          <mxGeometry width="50" height="50" relative="1" as="geometry">
            <mxPoint x="123" y="386" as="sourcePoint" />
            <mxPoint x="330" y="430" as="targetPoint" />
          </mxGeometry>
        </mxCell>
        <mxCell id="fVKeYW8XV8TN3xI963bs-18" value="" style="endArrow=classic;html=1;rounded=0;entryX=0;entryY=0.5;entryDx=0;entryDy=0;exitX=0.75;exitY=0.1;exitDx=0;exitDy=0;exitPerimeter=0;" parent="1" source="fVKeYW8XV8TN3xI963bs-1" target="fVKeYW8XV8TN3xI963bs-8" edge="1">
          <mxGeometry width="50" height="50" relative="1" as="geometry">
            <mxPoint x="123" y="386" as="sourcePoint" />
            <mxPoint x="330" y="530" as="targetPoint" />
          </mxGeometry>
        </mxCell>
        <mxCell id="fVKeYW8XV8TN3xI963bs-19" value="" style="endArrow=classic;html=1;rounded=0;entryX=0;entryY=0.5;entryDx=0;entryDy=0;exitX=1;exitY=0.3333333333333333;exitDx=0;exitDy=0;exitPerimeter=0;" parent="1" source="fVKeYW8XV8TN3xI963bs-1" target="fVKeYW8XV8TN3xI963bs-9" edge="1">
          <mxGeometry width="50" height="50" relative="1" as="geometry">
            <mxPoint x="120" y="460" as="sourcePoint" />
            <mxPoint x="327" y="704" as="targetPoint" />
          </mxGeometry>
        </mxCell>
        <mxCell id="fVKeYW8XV8TN3xI963bs-20" value="" style="endArrow=classic;html=1;rounded=0;entryX=0;entryY=0.5;entryDx=0;entryDy=0;" parent="1" target="fVKeYW8XV8TN3xI963bs-10" edge="1">
          <mxGeometry width="50" height="50" relative="1" as="geometry">
            <mxPoint x="120" y="390" as="sourcePoint" />
            <mxPoint x="310" y="780" as="targetPoint" />
          </mxGeometry>
        </mxCell>
        <mxCell id="fVKeYW8XV8TN3xI963bs-21" value="" style="endArrow=classic;html=1;rounded=0;entryX=0;entryY=0.5;entryDx=0;entryDy=0;exitX=1;exitY=0.3333333333333333;exitDx=0;exitDy=0;exitPerimeter=0;" parent="1" source="fVKeYW8XV8TN3xI963bs-1" target="fVKeYW8XV8TN3xI963bs-12" edge="1">
          <mxGeometry width="50" height="50" relative="1" as="geometry">
            <mxPoint x="110" y="480" as="sourcePoint" />
            <mxPoint x="310" y="910" as="targetPoint" />
          </mxGeometry>
        </mxCell>
        <mxCell id="jx2-04FlMk1ESYycfrGj-3" value="edit/delete&lt;br&gt;their own question/&lt;br&gt;answer" style="ellipse;whiteSpace=wrap;html=1;" parent="1" vertex="1">
          <mxGeometry x="320" y="570" width="120" height="80" as="geometry" />
        </mxCell>
        <mxCell id="44kDksnfABrZO29xGzHz-1" value="" style="endArrow=classic;html=1;rounded=0;entryX=0;entryY=0.5;entryDx=0;entryDy=0;exitX=0.75;exitY=0.1;exitDx=0;exitDy=0;exitPerimeter=0;" edge="1" parent="1" source="fVKeYW8XV8TN3xI963bs-1" target="jx2-04FlMk1ESYycfrGj-3">
          <mxGeometry width="50" height="50" relative="1" as="geometry">
            <mxPoint x="123" y="386" as="sourcePoint" />
            <mxPoint x="330" y="530" as="targetPoint" />
          </mxGeometry>
        </mxCell>
      </root>
    </mxGraphModel>
  </diagram>
  <diagram id="9GZCmB-cgatDS_053zse" name="Component Diagram">
    <mxGraphModel dx="1434" dy="768" grid="1" gridSize="10" guides="1" tooltips="1" connect="1" arrows="1" fold="1" page="1" pageScale="1" pageWidth="850" pageHeight="1100" math="0" shadow="0">
      <root>
        <mxCell id="0" />
        <mxCell id="1" parent="0" />
        <mxCell id="gH_MfHV12AWe2xPTMDPW-2" value="MySQL&lt;br&gt;Database" style="shape=module;align=left;spacingLeft=20;align=center;verticalAlign=top;whiteSpace=wrap;html=1;" vertex="1" parent="1">
          <mxGeometry x="180" y="360" width="100" height="50" as="geometry" />
        </mxCell>
        <mxCell id="gH_MfHV12AWe2xPTMDPW-5" value="Webpage&lt;br&gt;(Client)" style="shape=module;align=left;spacingLeft=20;align=center;verticalAlign=top;whiteSpace=wrap;html=1;" vertex="1" parent="1">
          <mxGeometry x="375" y="570" width="100" height="50" as="geometry" />
        </mxCell>
        <mxCell id="gH_MfHV12AWe2xPTMDPW-6" value="Express&lt;br&gt;Web-Server" style="shape=module;align=left;spacingLeft=20;align=center;verticalAlign=top;whiteSpace=wrap;html=1;" vertex="1" parent="1">
          <mxGeometry x="375" y="470" width="100" height="50" as="geometry" />
        </mxCell>
        <mxCell id="gH_MfHV12AWe2xPTMDPW-8" value="Spring &lt;br&gt;Back-end" style="shape=module;align=left;spacingLeft=20;align=center;verticalAlign=top;whiteSpace=wrap;html=1;" vertex="1" parent="1">
          <mxGeometry x="375" y="370" width="100" height="50" as="geometry" />
        </mxCell>
        <mxCell id="Zqfu6YhkQGw7XRS8hmiu-10" value="" style="html=1;verticalAlign=bottom;labelBackgroundColor=none;endArrow=open;endFill=0;dashed=1;rounded=0;entryX=1;entryY=0.5;entryDx=0;entryDy=0;exitX=0;exitY=0;exitDx=0;exitDy=15;exitPerimeter=0;" edge="1" parent="1" source="gH_MfHV12AWe2xPTMDPW-8" target="gH_MfHV12AWe2xPTMDPW-2">
          <mxGeometry width="160" relative="1" as="geometry">
            <mxPoint x="340" y="390" as="sourcePoint" />
            <mxPoint x="500" y="390" as="targetPoint" />
          </mxGeometry>
        </mxCell>
        <mxCell id="Zqfu6YhkQGw7XRS8hmiu-11" value="" style="html=1;verticalAlign=bottom;labelBackgroundColor=none;endArrow=open;endFill=0;dashed=1;rounded=0;exitX=0.5;exitY=0;exitDx=0;exitDy=0;entryX=0.5;entryY=1;entryDx=0;entryDy=0;" edge="1" parent="1" source="gH_MfHV12AWe2xPTMDPW-5" target="gH_MfHV12AWe2xPTMDPW-6">
          <mxGeometry width="160" relative="1" as="geometry">
            <mxPoint x="420" y="250" as="sourcePoint" />
            <mxPoint x="420" y="540" as="targetPoint" />
          </mxGeometry>
        </mxCell>
        <mxCell id="Zqfu6YhkQGw7XRS8hmiu-12" value="" style="html=1;verticalAlign=bottom;labelBackgroundColor=none;endArrow=open;endFill=0;dashed=1;rounded=0;exitX=0.5;exitY=0;exitDx=0;exitDy=0;entryX=0.5;entryY=1;entryDx=0;entryDy=0;" edge="1" parent="1" source="gH_MfHV12AWe2xPTMDPW-6" target="gH_MfHV12AWe2xPTMDPW-8">
          <mxGeometry width="160" relative="1" as="geometry">
            <mxPoint x="435" y="580" as="sourcePoint" />
            <mxPoint x="520" y="450" as="targetPoint" />
          </mxGeometry>
        </mxCell>
      </root>
    </mxGraphModel>
  </diagram>
  <diagram id="2jNaA9hV6QGds939QHa7" name="Domain Model">
    <mxGraphModel dx="1434" dy="768" grid="1" gridSize="10" guides="1" tooltips="1" connect="1" arrows="1" fold="1" page="1" pageScale="1" pageWidth="850" pageHeight="1100" math="0" shadow="0">
      <root>
        <mxCell id="0" />
        <mxCell id="1" parent="0" />
        <mxCell id="VEPosMApXB3hlT11GN6H-1" value="User" style="swimlane;fontStyle=0;childLayout=stackLayout;horizontal=1;startSize=26;fillColor=none;horizontalStack=0;resizeParent=1;resizeParentMax=0;resizeLast=0;collapsible=1;marginBottom=0;whiteSpace=wrap;html=1;" vertex="1" parent="1">
          <mxGeometry x="200" y="170" width="140" height="180" as="geometry" />
        </mxCell>
        <mxCell id="VEPosMApXB3hlT11GN6H-2" value="- id: Long&lt;br&gt;- username: String&lt;br&gt;- email: String&lt;br&gt;- phoneNumber: String&lt;br&gt;- password: String&lt;br&gt;&lt;br&gt;+ ask()&lt;br&gt;+ answer()&lt;br&gt;+ upvote()&lt;br&gt;+ downvote()" style="text;strokeColor=none;fillColor=none;align=left;verticalAlign=top;spacingLeft=4;spacingRight=4;overflow=hidden;rotatable=0;points=[[0,0.5],[1,0.5]];portConstraint=eastwest;whiteSpace=wrap;html=1;" vertex="1" parent="VEPosMApXB3hlT11GN6H-1">
          <mxGeometry y="26" width="140" height="154" as="geometry" />
        </mxCell>
        <mxCell id="VEPosMApXB3hlT11GN6H-5" value="Moderator" style="swimlane;fontStyle=0;childLayout=stackLayout;horizontal=1;startSize=26;fillColor=none;horizontalStack=0;resizeParent=1;resizeParentMax=0;resizeLast=0;collapsible=1;marginBottom=0;whiteSpace=wrap;html=1;" vertex="1" parent="1">
          <mxGeometry x="430" y="170" width="140" height="180" as="geometry" />
        </mxCell>
        <mxCell id="VEPosMApXB3hlT11GN6H-6" value="- id: Long&lt;br&gt;- username: String&lt;br&gt;- email: String&lt;br&gt;- phoneNumber: String&lt;br&gt;- password: String&lt;br&gt;&lt;br&gt;+ ban()&lt;br&gt;+ edit()&lt;br&gt;+ delete()" style="text;strokeColor=none;fillColor=none;align=left;verticalAlign=top;spacingLeft=4;spacingRight=4;overflow=hidden;rotatable=0;points=[[0,0.5],[1,0.5]];portConstraint=eastwest;whiteSpace=wrap;html=1;" vertex="1" parent="VEPosMApXB3hlT11GN6H-5">
          <mxGeometry y="26" width="140" height="154" as="geometry" />
        </mxCell>
        <mxCell id="VEPosMApXB3hlT11GN6H-7" value="Question" style="swimlane;fontStyle=0;childLayout=stackLayout;horizontal=1;startSize=26;fillColor=none;horizontalStack=0;resizeParent=1;resizeParentMax=0;resizeLast=0;collapsible=1;marginBottom=0;whiteSpace=wrap;html=1;" vertex="1" parent="1">
          <mxGeometry x="200" y="400" width="140" height="180" as="geometry" />
        </mxCell>
        <mxCell id="VEPosMApXB3hlT11GN6H-8" value="- id: Long&lt;br&gt;- title: String&lt;br&gt;- content: String&lt;br&gt;&amp;nbsp;- votes: String&lt;br&gt;- date: DateTime&lt;br&gt;&lt;br&gt;+ asker()&lt;br&gt;+ answer()&lt;br&gt;+ upvote()&lt;br&gt;+ downvote()" style="text;strokeColor=none;fillColor=none;align=left;verticalAlign=top;spacingLeft=4;spacingRight=4;overflow=hidden;rotatable=0;points=[[0,0.5],[1,0.5]];portConstraint=eastwest;whiteSpace=wrap;html=1;" vertex="1" parent="VEPosMApXB3hlT11GN6H-7">
          <mxGeometry y="26" width="140" height="154" as="geometry" />
        </mxCell>
        <mxCell id="VEPosMApXB3hlT11GN6H-9" value="Answer" style="swimlane;fontStyle=0;childLayout=stackLayout;horizontal=1;startSize=26;fillColor=none;horizontalStack=0;resizeParent=1;resizeParentMax=0;resizeLast=0;collapsible=1;marginBottom=0;whiteSpace=wrap;html=1;" vertex="1" parent="1">
          <mxGeometry x="200" y="640" width="140" height="180" as="geometry" />
        </mxCell>
        <mxCell id="VEPosMApXB3hlT11GN6H-10" value="- id: Long&lt;br&gt;- content: String&lt;br&gt;- date: DateTime&lt;br&gt;&lt;br&gt;+answerer()&lt;br&gt;+ upvote()&lt;br&gt;+ downvote()" style="text;strokeColor=none;fillColor=none;align=left;verticalAlign=top;spacingLeft=4;spacingRight=4;overflow=hidden;rotatable=0;points=[[0,0.5],[1,0.5]];portConstraint=eastwest;whiteSpace=wrap;html=1;" vertex="1" parent="VEPosMApXB3hlT11GN6H-9">
          <mxGeometry y="26" width="140" height="154" as="geometry" />
        </mxCell>
        <mxCell id="VEPosMApXB3hlT11GN6H-11" value="" style="endArrow=none;dashed=1;html=1;rounded=0;entryX=0.479;entryY=1.019;entryDx=0;entryDy=0;entryPerimeter=0;exitX=0.5;exitY=0;exitDx=0;exitDy=0;" edge="1" parent="1" source="VEPosMApXB3hlT11GN6H-7" target="VEPosMApXB3hlT11GN6H-2">
          <mxGeometry width="50" height="50" relative="1" as="geometry">
            <mxPoint x="400" y="550" as="sourcePoint" />
            <mxPoint x="450" y="500" as="targetPoint" />
          </mxGeometry>
        </mxCell>
        <mxCell id="VEPosMApXB3hlT11GN6H-14" value="" style="endArrow=none;dashed=1;html=1;rounded=0;entryX=0.464;entryY=1;entryDx=0;entryDy=0;entryPerimeter=0;exitX=0.5;exitY=0;exitDx=0;exitDy=0;" edge="1" parent="1" source="VEPosMApXB3hlT11GN6H-9" target="VEPosMApXB3hlT11GN6H-8">
          <mxGeometry width="50" height="50" relative="1" as="geometry">
            <mxPoint x="280" y="410" as="sourcePoint" />
            <mxPoint x="277" y="363" as="targetPoint" />
          </mxGeometry>
        </mxCell>
      </root>
    </mxGraphModel>
  </diagram>
  <diagram id="nCe5H7q9SMwGrCp5XUch" name="Use-case-moderator">
    <mxGraphModel dx="1434" dy="768" grid="1" gridSize="10" guides="1" tooltips="1" connect="1" arrows="1" fold="1" page="1" pageScale="1" pageWidth="850" pageHeight="1100" math="0" shadow="0">
      <root>
        <mxCell id="0" />
        <mxCell id="1" parent="0" />
        <mxCell id="CmCBQ3dWKcndBxN858vw-1" value="Moderator" style="shape=umlActor;verticalLabelPosition=bottom;verticalAlign=top;html=1;outlineConnect=0;" parent="1" vertex="1">
          <mxGeometry x="90" y="520" width="30" height="60" as="geometry" />
        </mxCell>
        <mxCell id="CmCBQ3dWKcndBxN858vw-2" value="" style="rounded=0;whiteSpace=wrap;html=1;rotation=-90;" parent="1" vertex="1">
          <mxGeometry x="-155.62" y="435.63" width="1071.25" height="200" as="geometry" />
        </mxCell>
        <mxCell id="CmCBQ3dWKcndBxN858vw-3" value="login" style="ellipse;whiteSpace=wrap;html=1;" parent="1" vertex="1">
          <mxGeometry x="320" y="80" width="120" height="80" as="geometry" />
        </mxCell>
        <mxCell id="CmCBQ3dWKcndBxN858vw-4" value="ban/unban user" style="ellipse;whiteSpace=wrap;html=1;" parent="1" vertex="1">
          <mxGeometry x="320" y="180" width="120" height="80" as="geometry" />
        </mxCell>
        <mxCell id="CmCBQ3dWKcndBxN858vw-5" value="add a question" style="ellipse;whiteSpace=wrap;html=1;" parent="1" vertex="1">
          <mxGeometry x="320" y="280" width="120" height="80" as="geometry" />
        </mxCell>
        <mxCell id="CmCBQ3dWKcndBxN858vw-6" value="edit/delete&lt;br&gt;a question" style="ellipse;whiteSpace=wrap;html=1;" parent="1" vertex="1">
          <mxGeometry x="320" y="380" width="120" height="80" as="geometry" />
        </mxCell>
        <mxCell id="CmCBQ3dWKcndBxN858vw-7" value="view a question" style="ellipse;whiteSpace=wrap;html=1;" parent="1" vertex="1">
          <mxGeometry x="320" y="480" width="120" height="80" as="geometry" />
        </mxCell>
        <mxCell id="CmCBQ3dWKcndBxN858vw-8" value="comment on a question" style="ellipse;whiteSpace=wrap;html=1;" parent="1" vertex="1">
          <mxGeometry x="320" y="580" width="120" height="80" as="geometry" />
        </mxCell>
        <mxCell id="CmCBQ3dWKcndBxN858vw-9" value="edit/delete&lt;br&gt;an answer" style="ellipse;whiteSpace=wrap;html=1;" parent="1" vertex="1">
          <mxGeometry x="320" y="680" width="120" height="80" as="geometry" />
        </mxCell>
        <mxCell id="CmCBQ3dWKcndBxN858vw-10" value="filter the questions" style="ellipse;whiteSpace=wrap;html=1;" parent="1" vertex="1">
          <mxGeometry x="320" y="780" width="120" height="80" as="geometry" />
        </mxCell>
        <mxCell id="CmCBQ3dWKcndBxN858vw-11" value="Stackoverflow web application" style="text;html=1;strokeColor=none;fillColor=none;align=center;verticalAlign=middle;whiteSpace=wrap;rounded=0;" parent="1" vertex="1">
          <mxGeometry x="350" y="10" width="60" height="30" as="geometry" />
        </mxCell>
        <mxCell id="CmCBQ3dWKcndBxN858vw-12" value="react to a question/&lt;br&gt;answer" style="ellipse;whiteSpace=wrap;html=1;" parent="1" vertex="1">
          <mxGeometry x="320" y="870" width="120" height="80" as="geometry" />
        </mxCell>
        <mxCell id="CmCBQ3dWKcndBxN858vw-13" value="" style="endArrow=classic;html=1;rounded=0;exitX=0.75;exitY=0.1;exitDx=0;exitDy=0;exitPerimeter=0;entryX=0;entryY=0.5;entryDx=0;entryDy=0;" parent="1" source="CmCBQ3dWKcndBxN858vw-1" target="CmCBQ3dWKcndBxN858vw-3" edge="1">
          <mxGeometry width="50" height="50" relative="1" as="geometry">
            <mxPoint x="140" y="320" as="sourcePoint" />
            <mxPoint x="190" y="270" as="targetPoint" />
          </mxGeometry>
        </mxCell>
        <mxCell id="CmCBQ3dWKcndBxN858vw-14" value="" style="endArrow=classic;html=1;rounded=0;exitX=0.75;exitY=0.1;exitDx=0;exitDy=0;exitPerimeter=0;entryX=0;entryY=0.5;entryDx=0;entryDy=0;" parent="1" source="CmCBQ3dWKcndBxN858vw-1" target="CmCBQ3dWKcndBxN858vw-4" edge="1">
          <mxGeometry width="50" height="50" relative="1" as="geometry">
            <mxPoint x="200" y="350" as="sourcePoint" />
            <mxPoint x="250" y="300" as="targetPoint" />
          </mxGeometry>
        </mxCell>
        <mxCell id="CmCBQ3dWKcndBxN858vw-15" value="" style="endArrow=classic;html=1;rounded=0;entryX=0;entryY=0.5;entryDx=0;entryDy=0;exitX=0.75;exitY=0.1;exitDx=0;exitDy=0;exitPerimeter=0;" parent="1" source="CmCBQ3dWKcndBxN858vw-1" target="CmCBQ3dWKcndBxN858vw-5" edge="1">
          <mxGeometry width="50" height="50" relative="1" as="geometry">
            <mxPoint x="120" y="370" as="sourcePoint" />
            <mxPoint x="330" y="230" as="targetPoint" />
          </mxGeometry>
        </mxCell>
        <mxCell id="CmCBQ3dWKcndBxN858vw-16" value="" style="endArrow=classic;html=1;rounded=0;entryX=0;entryY=0.5;entryDx=0;entryDy=0;exitX=0.75;exitY=0.1;exitDx=0;exitDy=0;exitPerimeter=0;" parent="1" source="CmCBQ3dWKcndBxN858vw-1" target="CmCBQ3dWKcndBxN858vw-6" edge="1">
          <mxGeometry width="50" height="50" relative="1" as="geometry">
            <mxPoint x="123" y="386" as="sourcePoint" />
            <mxPoint x="330" y="330" as="targetPoint" />
          </mxGeometry>
        </mxCell>
        <mxCell id="CmCBQ3dWKcndBxN858vw-17" value="" style="endArrow=classic;html=1;rounded=0;entryX=0;entryY=0.5;entryDx=0;entryDy=0;exitX=0.75;exitY=0.1;exitDx=0;exitDy=0;exitPerimeter=0;" parent="1" source="CmCBQ3dWKcndBxN858vw-1" target="CmCBQ3dWKcndBxN858vw-7" edge="1">
          <mxGeometry width="50" height="50" relative="1" as="geometry">
            <mxPoint x="123" y="386" as="sourcePoint" />
            <mxPoint x="330" y="430" as="targetPoint" />
          </mxGeometry>
        </mxCell>
        <mxCell id="CmCBQ3dWKcndBxN858vw-18" value="" style="endArrow=classic;html=1;rounded=0;entryX=0;entryY=0.5;entryDx=0;entryDy=0;exitX=0.75;exitY=0.1;exitDx=0;exitDy=0;exitPerimeter=0;" parent="1" source="CmCBQ3dWKcndBxN858vw-1" target="CmCBQ3dWKcndBxN858vw-8" edge="1">
          <mxGeometry width="50" height="50" relative="1" as="geometry">
            <mxPoint x="123" y="386" as="sourcePoint" />
            <mxPoint x="330" y="530" as="targetPoint" />
          </mxGeometry>
        </mxCell>
        <mxCell id="CmCBQ3dWKcndBxN858vw-19" value="" style="endArrow=classic;html=1;rounded=0;entryX=0;entryY=0.5;entryDx=0;entryDy=0;exitX=1;exitY=0.3333333333333333;exitDx=0;exitDy=0;exitPerimeter=0;" parent="1" source="CmCBQ3dWKcndBxN858vw-1" target="CmCBQ3dWKcndBxN858vw-9" edge="1">
          <mxGeometry width="50" height="50" relative="1" as="geometry">
            <mxPoint x="120" y="460" as="sourcePoint" />
            <mxPoint x="327" y="704" as="targetPoint" />
          </mxGeometry>
        </mxCell>
        <mxCell id="CmCBQ3dWKcndBxN858vw-20" value="" style="endArrow=classic;html=1;rounded=0;entryX=0;entryY=0.5;entryDx=0;entryDy=0;exitX=1;exitY=0.3333333333333333;exitDx=0;exitDy=0;exitPerimeter=0;" parent="1" source="CmCBQ3dWKcndBxN858vw-1" target="CmCBQ3dWKcndBxN858vw-10" edge="1">
          <mxGeometry width="50" height="50" relative="1" as="geometry">
            <mxPoint x="120" y="390" as="sourcePoint" />
            <mxPoint x="310" y="780" as="targetPoint" />
          </mxGeometry>
        </mxCell>
        <mxCell id="CmCBQ3dWKcndBxN858vw-21" value="" style="endArrow=classic;html=1;rounded=0;entryX=0;entryY=0.5;entryDx=0;entryDy=0;exitX=1;exitY=0.3333333333333333;exitDx=0;exitDy=0;exitPerimeter=0;" parent="1" source="CmCBQ3dWKcndBxN858vw-1" target="CmCBQ3dWKcndBxN858vw-12" edge="1">
          <mxGeometry width="50" height="50" relative="1" as="geometry">
            <mxPoint x="110" y="480" as="sourcePoint" />
            <mxPoint x="310" y="910" as="targetPoint" />
          </mxGeometry>
        </mxCell>
        <mxCell id="CmCBQ3dWKcndBxN858vw-24" value="log out" style="ellipse;whiteSpace=wrap;html=1;" parent="1" vertex="1">
          <mxGeometry x="320" y="970" width="120" height="80" as="geometry" />
        </mxCell>
        <mxCell id="CmCBQ3dWKcndBxN858vw-25" value="" style="endArrow=classic;html=1;rounded=0;entryX=0;entryY=0.5;entryDx=0;entryDy=0;exitX=1;exitY=0.3333333333333333;exitDx=0;exitDy=0;exitPerimeter=0;" parent="1" source="CmCBQ3dWKcndBxN858vw-1" target="CmCBQ3dWKcndBxN858vw-24" edge="1">
          <mxGeometry width="50" height="50" relative="1" as="geometry">
            <mxPoint x="130" y="400" as="sourcePoint" />
            <mxPoint x="330" y="920" as="targetPoint" />
          </mxGeometry>
        </mxCell>
      </root>
    </mxGraphModel>
  </diagram>
</mxfile>
